# xmcd
#
# Track frame offsets:
#	150
#	13696
#	29463
#	44926
#	57250
#	73015
#	93945
#	109083
#	129620
#	147304
#	167280
#	180965
#	193890
#	211051
#	224895
#	242474
#	259160
#
# Disc length: 3655 seconds
#
# Revision: 3843089690
# Processed by: cddbd v1.5.2PL0 Copyright (c) Steve Scherf et al.
# Submitted via: EZCDAudioConverter 2.1.5.1
#
DISCID=fd0e4511
DTITLE=Eero Raittinen and The Noisy Kinda Men - Pub Rock
DYEAR=2006
DGENRE=
TTITLE0=Hit Git and Split
TTITLE1=Move It
TTITLE2=Fancy Free
TTITLE3=Kontula
TTITLE4=My Baby Left Me
TTITLE5=Hurricane
TTITLE6=Down Bound Train
TTITLE7=Let Me Go My Merry Way
TTITLE8=Down the Line
TTITLE9=Drifting Heart
TTITLE10=Man That's All
TTITLE11=You Never Can Tell
TTITLE12=Why Don't You Do Right
TTITLE13=Just Because
TTITLE14=Alimony
TTITLE15=Let the Heartaches Begin
TTITLE16=Cheque Book
EXTD=
EXTT0=
EXTT1=
EXTT2=
EXTT3=
EXTT4=
EXTT5=
EXTT6=
EXTT7=
EXTT8=
EXTT9=
EXTT10=
EXTT11=
EXTT12=
EXTT13=
EXTT14=
EXTT15=
EXTT16=
PLAYORDER=
